# xmcd
#
# Track frame offsets: 
#        151
#        23757
#        42080
#        64754
#        80166
#        98855
#        117736
#        131920
#        151506
#        170703
#
# Disc length: 2502 seconds
#
# Revision: 0
# Processed by: cddbd v1.5.2PL0 Copyright (c) Steve Scherf et al.
# Submitted via: ExactAudioCopy v0.99pb4
#
DISCID=8409c40a
DTITLE=Babajack - The Maker
DYEAR=2008
DGENRE=Blues
TTITLE0=Life Is A Struggle
TTITLE1=Standing On The Corner
TTITLE2=Coming Home
TTITLE3=A Thousand Angels
TTITLE4=Mary
TTITLE5=Daddy's Gone
TTITLE6=Stones In My Shoes
TTITLE7=I Wish
TTITLE8=The Lady baby Stomp
TTITLE9=But I'm Happy
EXTD=
EXTT0=
EXTT1=
EXTT2=
EXTT3=
EXTT4=
EXTT5=
EXTT6=
EXTT7=
EXTT8=
EXTT9=
PLAYORDER=
